# xmcd
#
# Track frame offsets: 
#        180
#        13522
#        28829
#        40912
#        50051
#        64190
#        83158
#        95491
#        107099
#        118725
#        133904
#        145212
#        159780
#        170051
#
# Disc length: 2439 seconds
#
# Revision: 1
# Processed by: cddbd v1.5.2PL0 Copyright (c) Steve Scherf et al.
# Submitted via: ExactAudioCopyFreeDBPlugin 1.0
#
DISCID=c209850e
DTITLE=Various Artist - The Sweet Sounds of Muscle Shoals:  Rare Soul
DTITLE=from Quinvy-Broadway Sound Studio
DYEAR=1996
DGENRE=Soul
TTITLE0=Tony Borders - For My Woman's Love
TTITLE1=Bill Brandon - Your Big Chance
TTITLE2=Tony Borders - Please Don't Break My Heart
TTITLE3=Bill Brandon - All I Need is You
TTITLE4=Buddy Causey - It's a Man's World
TTITLE5=Tony Borders - Gentle on My Mind
TTITLE6=Eddie Bradford - It Sure Was Fun
TTITLE7=Tony Borders - I Met Her in Church
TTITLE8=Eddie Bradford - A Mighty Long Way
TTITLE9=Bill Brandon - What the World Needs Now
TTITLE10=Tony Borders - Headman
TTITLE11=Tony Borders - Love and a Friend
TTITLE12=Tony Borders - Don't Let Go
TTITLE13=Bill Brandon - To Make My Life Beautiful
EXTD=
EXTT0=
EXTT1=
EXTT2=
EXTT3=
EXTT4=
EXTT5=
EXTT6=
EXTT7=
EXTT8=
EXTT9=
EXTT10=
EXTT11=
EXTT12=
EXTT13=
PLAYORDER=
